<?xml version="1.0" standalone="no"?>
<!DOCTYPE svg PUBLIC "-//W3C//DTD SVG 20010904//EN"
 "http://www.w3.org/TR/2001/REC-SVG-20010904/DTD/svg10.dtd">
<svg version="1.0" xmlns="http://www.w3.org/2000/svg"
 width="425.000000pt" height="128.000000pt" viewBox="0 0 425.000000 128.000000"
 preserveAspectRatio="xMidYMid meet">
<metadata>
Created by potrace 1.16, written by Peter Selinger 2001-2019
</metadata>
<g transform="translate(0.000000,128.000000) scale(0.100000,-0.100000)"
fill="#9ED8FF" stroke="none">
<path d="M394 1046 c-3 -8 -4 -31 -2 -52 l3 -39 415 0 415 0 0 50 0 50 -413 3
c-347 2 -413 0 -418 -12z"/>
<path d="M400 575 l0 -355 410 0 410 0 0 170 0 170 -232 0 -233 0 0 30 0 30
233 0 232 0 0 155 0 155 -410 0 -410 0 0 -355z"/>
<path d="M4131 814 c-12 -15 -21 -34 -21 -44 0 -30 39 -70 69 -70 44 0 71 26
71 69 0 70 -77 99 -119 45z"/>
<path d="M3280 510 l0 -280 35 0 c29 0 35 4 35 20 l0 21 28 -21 c58 -43 151
-38 207 11 92 81 85 270 -13 335 -41 28 -141 26 -181 -4 l-31 -23 0 111 0 110
-40 0 -40 0 0 -280z m230 35 c40 -20 60 -63 60 -125 0 -63 -20 -105 -61 -126
-43 -22 -91 -11 -123 27 -22 25 -26 41 -26 90 0 69 19 112 58 133 35 19 56 20
92 1z"/>
<path d="M2543 752 c-74 -27 -118 -64 -149 -128 -23 -47 -28 -70 -28 -133 0
-129 57 -219 161 -257 46 -16 154 -18 206 -3 33 9 38 14 33 32 -3 12 -6 28 -6
34 0 10 -7 10 -27 2 -16 -6 -55 -11 -89 -12 -123 -2 -196 73 -198 202 0 80 22
130 78 175 30 25 48 31 101 34 35 2 79 -1 96 -7 38 -13 35 -15 43 25 9 39 -2
44 -99 50 -52 3 -83 0 -122 -14z"/>
<path d="M1340 425 l0 -195 35 0 35 0 0 195 0 195 -35 0 -35 0 0 -195z"/>
<path d="M1627 606 c-76 -28 -116 -92 -117 -188 0 -68 12 -103 48 -142 66 -70
192 -74 265 -8 53 48 75 171 43 245 -37 87 -141 128 -239 93z m140 -81 c75
-86 28 -245 -72 -245 -115 0 -152 206 -47 265 37 21 91 12 119 -20z"/>
<path d="M2100 609 c-14 -6 -35 -20 -47 -31 l-23 -21 0 26 c0 24 -4 27 -35 27
l-35 0 0 -190 0 -190 39 0 39 0 4 136 c3 135 3 136 31 160 36 31 89 32 115 3
26 -27 32 -62 32 -190 l0 -109 35 0 35 0 0 143 c0 115 -3 149 -18 177 -28 58
-107 85 -172 59z"/>
<path d="M3816 610 c-71 -22 -116 -100 -116 -200 0 -85 27 -136 90 -167 49
-25 128 -30 193 -12 34 9 37 12 31 37 -9 35 -7 34 -38 22 -40 -15 -113 -12
-147 6 -27 14 -59 65 -59 94 0 6 49 10 136 10 l137 0 -6 55 c-10 99 -60 155
-144 161 -26 2 -61 -1 -77 -6z m119 -76 c14 -15 25 -38 25 -50 0 -24 -2 -24
-95 -24 -52 0 -95 2 -95 5 0 4 7 19 15 35 33 64 107 81 150 34z"/>
<path d="M2852 463 c4 -166 14 -200 70 -229 41 -21 115 -14 157 15 31 22 31
22 31 2 0 -17 6 -21 35 -21 l35 0 0 190 0 190 -40 0 -40 0 0 -125 c0 -71 -5
-135 -11 -149 -7 -14 -28 -33 -47 -42 -32 -15 -39 -15 -61 -3 -43 24 -51 54
-51 192 l0 127 -41 0 -41 0 4 -147z"/>
</g>
</svg>
